# xmcd
#
# Track frame offsets:
#	150
#	912
#	21425
#	42745
#	57197
#	76235
#	88772
#	107212
#	123627
#	143075
#	159967
#	174347
#	192222
#	208050
#	226382
#	246245
#	265222
#	283782
#	305045
#
# Disc length: 4299
#
# Revision: 1
# Processed by: cddbd v1.5.1PL0 Copyright (c) Steve Scherf et al.
# Submitted via: audiograbber 1.81.03
# Normalized: r0:DSETVAR1
#
DISCID=0a10c913
DTITLE=Various Artist - TM HitDisc 242A
DYEAR=1998
DGENRE=Pop
TTITLE0=Blank - Track
TTITLE1=Michael Bolton - Safe Place From The Storm [Radio Mix]
TTITLE2=Marc Cohn - Already Home [Album Version]
TTITLE3=Specials - It's You [Album Version]
TTITLE4=Full Moon Bay - Paradise
TTITLE5=Lisa Loeb - Let's Forget About It
TTITLE6=Sarah McLachlan - Adia
TTITLE7=Rebekah - Sin So Well (Lyrical Content!)
TTITLE8=Black Lab - Time Ago
TTITLE9=Shawn Colvin - Nothin On Me [Pop Remix Edit]
TTITLE10=Garrison Starr - Superhero [Radio Edit Remix]
TTITLE11=Chris Cornell - Sunshower [Radio Edit]
TTITLE12=Destiny's Child Feat. Wyclef Jean - No, No, No [Part II]
TTITLE13=Room Service - Sho'Nuff (Ain't Nuthin' Wrong) [Sho'Nuff Mix Clean Version]
TTITLE14=Mya Feat. Sisqo Of Dru Hill - It's All About Me [Radio Vs.]
TTITLE15=Rebbie Jackson - Yours Faithfully [C&J Single Version]
TTITLE16=DAS EFX Feat. Redman - Rap Scholar [Original Version Clean]
TTITLE17=H-Town - Natural Woman [Radio]
TTITLE18=4kast Feat. Mic Geronimo - Miss My Lovin' [Radio Edit (no rap)]
EXTD=
EXTT0=
EXTT1=
EXTT2=
EXTT3=
EXTT4=
EXTT5=
EXTT6=
EXTT7=
EXTT8=
EXTT9=
EXTT10=
EXTT11=
EXTT12=
EXTT13=
EXTT14=
EXTT15=
EXTT16=
EXTT17=
EXTT18=
PLAYORDER=
